/* XPM */
static char * pyastra_48x48_xpm[] = {
"50 49 96 2",
"  	c None",
". 	c #3D92BC",
"+ 	c #3D92BB",
"@ 	c #539EC4",
"# 	c #78B3D0",
"$ 	c #559FC4",
"% 	c #539EC3",
"& 	c #3D91BB",
"* 	c #3F93BD",
"= 	c #DFEDF4",
"- 	c #F3F8FB",
"; 	c #F1F7FA",
"> 	c #F7FAFC",
", 	c #65A8CA",
"' 	c #4390B6",
") 	c #FF4C00",
"! 	c #707F8A",
"~ 	c #4C9AC1",
"{ 	c #FFFFFF",
"] 	c #9FC9DE",
"^ 	c #498EB0",
"/ 	c #8E746D",
"( 	c #8A7671",
"_ 	c #837878",
": 	c #977164",
"< 	c #977165",
"[ 	c #717F89",
"} 	c #947267",
"| 	c #4E9BC2",
"1 	c #C4DEEB",
"2 	c #4191B8",
"3 	c #508BAA",
"4 	c #5E869C",
"5 	c #4395BE",
"6 	c #9DC8DD",
"7 	c #FEFFFF",
"8 	c #E6F1F6",
"9 	c #CAE1ED",
"0 	c #61A6C8",
"a 	c #4798C0",
"b 	c #DCEBF3",
"c 	c #EFF6FA",
"d 	c #91C1D9",
"e 	c #9AC6DC",
"f 	c #9EC9DE",
"g 	c #56A0C4",
"h 	c #8DBFD7",
"i 	c #FCFDFE",
"j 	c #E2EFF5",
"k 	c #90C1D9",
"l 	c #74B1CF",
"m 	c #509DC2",
"n 	c #8ABDD6",
"o 	c #B6D6E6",
"p 	c #F4F9FB",
"q 	c #FBFDFD",
"r 	c #A0CADE",
"s 	c #69ABCB",
"t 	c #D9EAF2",
"u 	c #D2E5EF",
"v 	c #BEDBE9",
"w 	c #B3D4E5",
"x 	c #79B4D1",
"y 	c #BFDBE9",
"z 	c #FDFEFE",
"A 	c #EAF3F8",
"B 	c #59A2C6",
"C 	c #60A6C8",
"D 	c #4697BF",
"E 	c #96C4DB",
"F 	c #ECF4F8",
"G 	c #70AECD",
"H 	c #8EC0D8",
"I 	c #A4CCE0",
"J 	c #F2F8FB",
"K 	c #4797BF",
"L 	c #FBFDFE",
"M 	c #FEFEFF",
"N 	c #F0F7FA",
"O 	c #4496BE",
"P 	c #4999C0",
"Q 	c #FCFEFE",
"R 	c #CBE2ED",
"S 	c #EFF6F9",
"T 	c #7AB4D1",
"U 	c #B0D2E4",
"V 	c #D1E5EF",
"W 	c #B5D5E5",
"X 	c #93C2DA",
"Y 	c #3E92BC",
"Z 	c #6CACCC",
"` 	c #82B9D4",
" .	c #86BBD5",
"..	c #4597BF",
"+.	c #57A0C5",
"@.	c #529EC3",
"                                                                                                    ",
"                                                                                                    ",
"                                                                                                    ",
"                                                                                                    ",
"                                                                                                    ",
"                                          .       .                                                 ",
"                                    .     .       .                                                 ",
"                                    .     .       .     .                                           ",
"                            .       . .   . .     .     .     .                                     ",
"                              .     . .     .     .     .     .       .       .                     ",
"                                .   . . +   . .   .   . .   . .     .       .                       ",
"                          . .   . . . . .   . .   . . . .   .     . .     . .                       ",
"                            . .   . . . . . . . . . . . . . .   . .     . .                         ",
"                    . .       . . . . . . . . . . . . . . . . . .     . .                           ",
"                      . . .     . . . . . . . . . . . . . . . . . . . . .   .                       ",
"              .           . . . . . . . @ # $ % . . . . . . . . & . . .   . .                       ",
"                  . . . .   . . . . . * = - ; > , ' ) ) ) ) ) ) ) ) ! . . .                         ",
"                      . . . . . . . . ~ { { { { ] ^ ) / ( ) _ : < [ } . .         .                 ",
"        . .                 . . . . . | { { { { 1 2 3 4 2 . . . . . . .     . . .                   ",
"              . . . . . . . . . . . 5 6 { { { { 7 8 9 0 . . . . . . .   . . .                       ",
"                      . . . . . . a b { { { { { { { { c $ . . . . . . . . .           . . .         ",
"                  . . . . . . . . d { { { { { { { { { { e . . . . . . . . . . . . . . .             ",
"          . . . . . . . . . . . . 6 { { { { { { { { { { f . . . . . . . . . . . .                   ",
"                          . . . . g 6 h i { { j k { { { l . . . . . . . . . .                       ",
"                    . . . . . . . m n o p q r s t { { u . . . . . . . . . . . . . .                 ",
"                . . . . . . . . . . $ v w x y z { { A B . . . C D . . . . .                         ",
"          . . .       . . . . . . . . . E q { { { F o G H I d J @ . . .                             ",
"                    . . . + . . . . . K L { { { M z { { { { { N O . . . . . . . . .                 ",
"                . . .   . . . . . . . P Q { { { { { { { 7 R S T . . . . .                           ",
"              . .     . . .   . . . . . U { { { V W 7 q X . * . . . . . . .                         ",
"                    . . .   . . . . . . Y Z `  .... +.@.. . . . . . . . . . . .                     ",
"                  . .       . . . . . . . . . . . . . . . . . . . . . .       . . .                 ",
"                . .       . . . . . . . . . . . . . . . . . . . .   . . .                           ",
"              . .       . . . . .   . . . . . . . . . . . . . . . .     . .                         ",
"            .         . . .   .     .   . . . . . . . . .   . . + . .       . .                     ",
"                      .     . .     .   . . . . . . .   . .   . .   . .         .                   ",
"                    .       .     . .   .   . . .   .   . .   . .       .                           ",
"                  .               .     .     . .   .     .     . .       .                         ",
"                .         .       .     .     . .   .       .     .                                 ",
"                                  .     .     . .   .       .                                       ",
"                                  .     .     . &             .                                     ",
"                                              . .             .                                     ",
"                                                .               .                                   ",
"                                                .                                                   ",
"                                                .                                                   ",
"                                                .                                                   ",
"                                                                                                    ",
"                                                                                                    ",
"                                                                                                    "};
